<mxfile host="Electron" modified="2024-07-02T09:36:34.725Z" agent="Mozilla/5.0 (X11; Linux x86_64) AppleWebKit/537.36 (KHTML, like Gecko) draw.io/24.5.3 Chrome/124.0.6367.207 Electron/30.0.6 Safari/537.36" etag="m7grihrLtODeW4RyfGsn" version="24.5.3" type="device">
  <diagram name="Page-1" id="mYTrezYkpWKf6fuf-IEJ">
    <mxGraphModel dx="1350" dy="829" grid="1" gridSize="10" guides="1" tooltips="1" connect="1" arrows="1" fold="1" page="1" pageScale="1" pageWidth="850" pageHeight="1100" math="0" shadow="0">
      <root>
        <mxCell id="0" />
        <mxCell id="1" parent="0" />
        <mxCell id="PF-537-ETVLi_I950rD3-22" value="UART Core" style="rounded=0;whiteSpace=wrap;html=1;verticalAlign=bottom;fontSize=18;fontStyle=1;strokeWidth=4;" parent="1" vertex="1">
          <mxGeometry x="40" y="240" width="600" height="240" as="geometry" />
        </mxCell>
        <mxCell id="PF-537-ETVLi_I950rD3-21" value="UART &#39;mini&#39; edge-triggered interrupt controller (miniEdgeIC)" style="rounded=0;whiteSpace=wrap;html=1;verticalAlign=bottom;fontSize=18;fontStyle=1;strokeWidth=3;" parent="1" vertex="1">
          <mxGeometry x="80" y="260" width="520" height="180" as="geometry" />
        </mxCell>
        <mxCell id="PF-537-ETVLi_I950rD3-4" value="Tx FIFO&lt;div style=&quot;font-size: 14px;&quot;&gt;half full -&amp;gt;&lt;/div&gt;&lt;div style=&quot;font-size: 14px;&quot;&gt;less than half full&lt;/div&gt;" style="endArrow=classic;html=1;rounded=0;fontSize=14;" parent="1" edge="1">
          <mxGeometry width="50" height="50" relative="1" as="geometry">
            <mxPoint x="400" y="400" as="sourcePoint" />
            <mxPoint x="400" y="320" as="targetPoint" />
          </mxGeometry>
        </mxCell>
        <mxCell id="PF-537-ETVLi_I950rD3-8" value="" style="ellipse;whiteSpace=wrap;html=1;fillColor=none;dashed=1;fontSize=14;" parent="1" vertex="1">
          <mxGeometry x="100" y="330" width="480" height="80" as="geometry" />
        </mxCell>
        <mxCell id="PF-537-ETVLi_I950rD3-1" value="ISR/IEN" style="rounded=0;whiteSpace=wrap;html=1;fontSize=18;fontStyle=1;strokeWidth=3;" parent="1" vertex="1">
          <mxGeometry x="120" y="280" width="440" height="40" as="geometry" />
        </mxCell>
        <mxCell id="PF-537-ETVLi_I950rD3-2" value="Rx FIFO&lt;div style=&quot;font-size: 14px;&quot;&gt;empty-&amp;gt;&lt;/div&gt;&lt;div style=&quot;font-size: 14px;&quot;&gt;not empty&lt;/div&gt;" style="endArrow=classic;html=1;rounded=0;fontSize=14;" parent="1" edge="1">
          <mxGeometry width="50" height="50" relative="1" as="geometry">
            <mxPoint x="160" y="400" as="sourcePoint" />
            <mxPoint x="160" y="320" as="targetPoint" />
          </mxGeometry>
        </mxCell>
        <mxCell id="PF-537-ETVLi_I950rD3-3" value="Rx FIFO&amp;nbsp;&lt;div style=&quot;font-size: 14px;&quot;&gt;less than half full -&amp;gt;&lt;div style=&quot;font-size: 14px;&quot;&gt;&lt;div style=&quot;font-size: 14px;&quot;&gt;half full&lt;/div&gt;&lt;/div&gt;&lt;/div&gt;" style="endArrow=classic;html=1;rounded=0;fontSize=14;" parent="1" edge="1">
          <mxGeometry width="50" height="50" relative="1" as="geometry">
            <mxPoint x="280" y="400" as="sourcePoint" />
            <mxPoint x="280" y="320" as="targetPoint" />
          </mxGeometry>
        </mxCell>
        <mxCell id="PF-537-ETVLi_I950rD3-5" value="Tx FIFO&lt;div style=&quot;font-size: 14px;&quot;&gt;not empty -&amp;gt;&lt;/div&gt;&lt;div style=&quot;font-size: 14px;&quot;&gt;empty&lt;/div&gt;" style="endArrow=classic;html=1;rounded=0;fontSize=14;" parent="1" edge="1">
          <mxGeometry width="50" height="50" relative="1" as="geometry">
            <mxPoint x="520" y="400" as="sourcePoint" />
            <mxPoint x="520" y="320" as="targetPoint" />
          </mxGeometry>
        </mxCell>
        <mxCell id="PF-537-ETVLi_I950rD3-6" value="Ibex CPU" style="rounded=0;whiteSpace=wrap;html=1;fontSize=18;fontStyle=1;strokeWidth=4;" parent="1" vertex="1">
          <mxGeometry x="280" y="40" width="150" height="60" as="geometry" />
        </mxCell>
        <mxCell id="PF-537-ETVLi_I950rD3-7" value="UART IRQ" style="endArrow=classic;html=1;rounded=0;exitX=0.455;exitY=-0.025;exitDx=0;exitDy=0;exitPerimeter=0;fontSize=17;fontStyle=1" parent="1" source="PF-537-ETVLi_I950rD3-1" edge="1">
          <mxGeometry x="-0.1173" width="50" height="50" relative="1" as="geometry">
            <mxPoint x="340" y="240" as="sourcePoint" />
            <mxPoint x="320" y="100" as="targetPoint" />
            <mxPoint as="offset" />
          </mxGeometry>
        </mxCell>
        <mxCell id="PF-537-ETVLi_I950rD3-12" value="IRQ Event&lt;div style=&quot;font-size: 18px;&quot;&gt;Pulses&lt;/div&gt;" style="text;html=1;align=center;verticalAlign=middle;whiteSpace=wrap;rounded=0;fontSize=18;" parent="1" vertex="1">
          <mxGeometry x="670" y="330" width="60" height="30" as="geometry" />
        </mxCell>
        <mxCell id="PF-537-ETVLi_I950rD3-13" value="Level Sensitive" style="text;html=1;align=center;verticalAlign=middle;whiteSpace=wrap;rounded=0;fontSize=18;" parent="1" vertex="1">
          <mxGeometry x="110" y="160" width="60" height="30" as="geometry" />
        </mxCell>
        <mxCell id="PF-537-ETVLi_I950rD3-14" value="" style="endArrow=classic;html=1;rounded=0;" parent="1" edge="1">
          <mxGeometry width="50" height="50" relative="1" as="geometry">
            <mxPoint x="180" y="170" as="sourcePoint" />
            <mxPoint x="270" y="200" as="targetPoint" />
          </mxGeometry>
        </mxCell>
        <mxCell id="PF-537-ETVLi_I950rD3-15" value="" style="endArrow=classic;html=1;rounded=0;entryX=0.942;entryY=0.444;entryDx=0;entryDy=0;entryPerimeter=0;" parent="1" target="PF-537-ETVLi_I950rD3-21" edge="1">
          <mxGeometry width="50" height="50" relative="1" as="geometry">
            <mxPoint x="660" y="340" as="sourcePoint" />
            <mxPoint x="590" y="340" as="targetPoint" />
          </mxGeometry>
        </mxCell>
        <mxCell id="PF-537-ETVLi_I950rD3-17" value="ISR registers events" style="text;html=1;align=center;verticalAlign=middle;whiteSpace=wrap;rounded=0;fontSize=18;" parent="1" vertex="1">
          <mxGeometry x="670" y="250" width="60" height="30" as="geometry" />
        </mxCell>
        <mxCell id="PF-537-ETVLi_I950rD3-18" value="" style="endArrow=classic;html=1;rounded=0;" parent="1" edge="1">
          <mxGeometry width="50" height="50" relative="1" as="geometry">
            <mxPoint x="660" y="260" as="sourcePoint" />
            <mxPoint x="570" y="280" as="targetPoint" />
          </mxGeometry>
        </mxCell>
        <mxCell id="PF-537-ETVLi_I950rD3-19" value="CPU&lt;div style=&quot;font-size: 18px;&quot;&gt;clears/acks&lt;/div&gt;&lt;div style=&quot;font-size: 18px;&quot;&gt;events&lt;/div&gt;" style="endArrow=classic;html=1;rounded=0;exitX=0.79;exitY=1;exitDx=0;exitDy=0;exitPerimeter=0;fontSize=18;" parent="1" source="PF-537-ETVLi_I950rD3-6" edge="1">
          <mxGeometry x="-0.4444" width="50" height="50" relative="1" as="geometry">
            <mxPoint x="400" y="160" as="sourcePoint" />
            <mxPoint x="398" y="280" as="targetPoint" />
            <mxPoint as="offset" />
          </mxGeometry>
        </mxCell>
      </root>
    </mxGraphModel>
  </diagram>
</mxfile>
